<svg xmlns="http://www.w3.org/2000/svg" width="384px" height="288px" version="2.0" shape-rendering="geometricPrecision" text-rendering="geometricPrecision" image-rendering="optimizeQuality" fill-rule="evenodd" clip-rule="evenodd"
viewBox="0 0 384 288">
 <g id="MagazineBack">
  <path fill="#333333" stroke="black" stroke-linecap="round" stroke-linejoin="round" stroke-miterlimit="22.9256" d="M168.628 73.127c-0.856,-0.994 -2.355,-1.55 -3.664,-1.452l-11.533 0.863 -13.563 1.735 -38.373 112.643 32.002 0 37.092 -108.879c0.252,-0.742 0.559,-1.985 -0.053,-2.696l-1.908 -2.214z"/>
 </g>
 <g id="Bullet">
  <path fill="#CC9933" stroke="black" stroke-linecap="round" stroke-linejoin="round" stroke-miterlimit="22.9256" d="M162.303 68.197l-1.086 0 -3.999 0.24 0 11 3.999 0.24 1.086 0c12.86,0 12.86,-11.48 0,-11.48z"/>
 </g>
 <g id="Case">
  <rect fill="#CC9933" stroke="black" stroke-linecap="round" stroke-linejoin="round" stroke-miterlimit="22.9256" x="139.938" y="67.842" width="0.86" height="12.19"/>
  <rect fill="#CC9933" stroke="black" stroke-linecap="round" stroke-linejoin="round" stroke-miterlimit="22.9256" x="140.798" y="68.857" width="0.89" height="10.16"/>
  <polygon fill="#CC9933" stroke="black" stroke-linecap="round" stroke-linejoin="round" stroke-miterlimit="22.9256" points="143.667,79.982 162.368,79.942 162.368,67.932 143.667,67.892 "/>
  <polygon fill="#CC9933" stroke="black" stroke-linecap="round" stroke-linejoin="round" stroke-miterlimit="22.9256" points="139.937,80.032 139.937,67.842 139.558,68.385 139.558,79.49 "/>
  <polygon fill="#CC9933" stroke="black" stroke-linecap="round" stroke-linejoin="round" stroke-miterlimit="22.9256" points="141.688,79.017 143.667,79.982 143.667,67.892 141.688,68.857 "/>
 </g>
 <g id="MagazineFront">
  <path fill="#4D4D4D" stroke="black" stroke-linecap="round" stroke-linejoin="round" stroke-miterlimit="22.9256" d="M166.057 77.482c-1.555,-0.19 -1.379,-3.683 -4.059,-3.374l-4.312 0.497c-3.267,0.376 -3.117,-2.224 -5.125,-1.965l-12.693 1.633 -38.373 112.643 32.002 0 37.092 -108.879c-1.573,-0.182 -2.622,-0.322 -4.532,-0.555z"/>
  <polygon fill="#4D4D4D" stroke="black" stroke-linecap="round" stroke-linejoin="round" stroke-miterlimit="22.9256" points="98.066,186.916 82.168,233.581 125.785,233.581 141.683,186.916 "/>
  <path fill="#333333" stroke="black" stroke-linecap="round" stroke-linejoin="round" stroke-miterlimit="22.9256" d="M162.08 74.1c-0.027,0.003 -0.054,0.005 -0.082,0.008l-3.735 0.431 -37.174 109.118 3.668 0 37.323 -109.557z"/>
  <path fill="#4D4D4D" stroke="black" stroke-linecap="round" stroke-linejoin="round" stroke-miterlimit="22.9256" d="M79.883 240.14l43.318 6.14c3.75,0.532 11.347,0.655 11.347,-1.059l-0.037 -2.919 -3.513 -1.411 -2.276 -7.353 -46.554 0.043 -2.285 6.559z"/>
 </g>
 <g id="Trigger">
  <circle fill="none" cx="192.132" cy="92.374" r="47.022"/>
  <path fill="#4D4D4D" stroke="black" stroke-linecap="round" stroke-linejoin="round" stroke-miterlimit="22.9256" d="M179.014 102.627l0.555 -1.268 5.809 -0.006 -0.705 4.431c-2.842,0.784 -5.419,2.978 -6.684,5.482 -2.423,4.794 -1.138,10.321 2.386,13.481 3.398,3.047 -1.45,2.088 -5.008,-1.248 -2.2,-2.064 -3.555,-4.874 -3.557,-7.976 -0.005,-6.373 6.721,-12.241 7.204,-12.896z"/>
 </g>
 <g id="Hammer">
  <circle fill="none" cx="105.585" cy="85.373" r="44.005"/>
  <path fill="#B3B3B3" stroke="black" stroke-linecap="round" stroke-linejoin="round" stroke-miterlimit="22.9256" d="M108.915 74.501l-2.152 4.578c-0.382,0.813 -1.359,1.165 -2.172,0.783l-2.968 -1.395 1.472 -2.043 0.368 -6.29 4.669 2.196c0.813,0.381 1.164,1.358 0.783,2.171z"/>
  <path fill="#B3B3B3" stroke="black" stroke-linecap="round" stroke-linejoin="round" stroke-miterlimit="22.9256" d="M103.024 68.272l3.46 14.032 -5.462 1.287 -4.926 -13.353c-1.784,-4.838 5.757,-6.713 6.928,-1.966z"/>
 </g>
 <g id="Receiver">
  <path fill="#4D4D4D" stroke="black" stroke-linecap="round" stroke-linejoin="round" stroke-miterlimit="22.9256" d="M282.437 83.887l-0.998 -0.015 -0.275 1.426 -4.058 2.234 -12.788 0 -166.841 0 -2.757 7.689c-4.306,12.008 18.159,7.038 17.415,20.354 -0.406,7.271 -9.779,22.811 -13.63,34.721 -4.464,13.81 -9.842,26.751 -10.235,41.422l6.92 0 1.523 -5.204c0.288,-0.982 1.943,-0.825 2.966,-0.798l22.411 0.603 19.255 -0.1c1.194,-0.152 2.838,-0.588 2.758,-2.407l0 0c-0.402,-8.237 -0.245,-7.609 12.445,-43.703l4.315 -12.342c-0.689,-0.544 -1.049,-1.397 -1.049,-2.245 0,-1.49 1.088,-3.143 2.839,-2.873l4.149 -11.864c3.011,-8.613 4.737,-9.43 13.905,-9.431l44.936 -0.006c1.132,0 3.111,-1.359 4.619,-1.359l47.084 0.005c3.79,0 5.091,-1.791 5.091,-3.377l0 -12.73z"/>
  <circle fill="#333333" stroke="black" stroke-linecap="round" stroke-linejoin="round" stroke-miterlimit="22.9256" cx="192.132" cy="92.374" r="2.611"/>
  <path fill="#4D4D4D" stroke="black" stroke-linecap="round" stroke-linejoin="round" stroke-miterlimit="22.9256" d="M211.16 130.699l3.058 -0.287c1.254,-0.117 2.085,-1.648 2.491,-2.84l8.934 -26.224 -16.211 0.006c7.461,-0.004 9.971,4.576 8.675,8.382l-4.2 12.328c-1.193,3.503 -2.701,5.549 -9.938,5.549 -4.698,0 -7.83,-1.077 -12.06,-1.114 -4.379,-0.037 -7.107,1.114 -14.335,1.114 -6.821,0 -13.301,-9.596 -11.295,-15.333l-3.626 10.369c0.114,0.017 0.23,0.043 0.35,0.077l5.08 1.463 0 3.209 -0.357 0.067 11.237 2.663c6.449,1.528 24.712,1.273 32.197,0.571z"/>
  <rect fill="#333333" stroke="black" stroke-linecap="round" stroke-linejoin="round" stroke-miterlimit="22.9256" x="212.148" y="91.924" width="58.535" height="5.005"/>
  <path fill="#4D4D4D" stroke="black" stroke-linecap="round" stroke-linejoin="round" stroke-miterlimit="22.9256" d="M163.003 122.726l5.08 1.463 0 3.209 -4.699 0.878c-2.313,0.432 -3.57,-1.169 -3.57,-2.754l0 0c0,-1.586 1.234,-3.359 3.189,-2.796z"/>
  <path fill="#333333" stroke="black" stroke-linecap="round" stroke-linejoin="round" stroke-miterlimit="22.9256" d="M128.494 184.067c5.61,0.053 4.584,-3.165 10.267,-22.169 2.283,-7.635 9.537,-32.948 17.08,-46.241 5.75,-10.134 3.091,-12.144 -0.306,-12.663 -6.528,-0.998 -18.067,-0.769 -23.834,2.664 -21.886,13.034 -37.206,53.776 -35.852,73.881 0.176,2.61 2.976,3.637 12.109,4.104 2.01,-3.242 5.6,-5.4 9.695,-5.4 4.267,0 7.985,2.344 9.94,5.815l0.901 0.009z"/>
 </g>
 <g id="Barrel">
  <rect fill="#B3B3B3" stroke="black" stroke-linecap="round" stroke-linejoin="round" stroke-miterlimit="22.9256" x="245.967" y="66.316" width="76.451" height="14.797"/>
 </g>
 <g id="Slide">
  <path fill="#B3B3B3" stroke="black" stroke-linecap="round" stroke-linejoin="round" stroke-miterlimit="22.9256" d="M281.439 83.872l36.629 0.015 0 -21.707 -109.508 0 -0.435 1.47 0 11.859 -28.669 0 0 -13.329 -35.928 0 -1.149 3.374 33.95 0 -2.095 9.357 -1.904 0 0 3.807 112.422 0c-1.596,0 -2.524,1.079 -2.748,2.239l-0.565 2.915zm-142.328 -21.692l-0.526 0 -6.135 18.009 0.526 0 6.135 -18.009zm-4.943 0l-0.526 0 -6.135 18.009 0.526 0 6.135 -18.009zm-4.943 0l-0.526 0 -6.135 18.009 0.526 0 6.135 -18.009zm-4.943 0l-0.526 0 -6.134 18.009 0.525 0 6.135 -18.009zm-4.943 0l-0.525 0 -6.135 18.009 0.525 0 6.135 -18.009zm-5.151 0.613l-0.526 0 -5.926 17.396 0.526 0 5.926 -17.396zm-4.943 0l-5.131 5.972 -6.637 18.767 2.597 -7.343 3.245 0 5.926 -17.396z"/>
  <polygon fill="#B3B3B3" stroke="black" stroke-linecap="round" stroke-linejoin="round" stroke-miterlimit="22.9256" points="109.245,62.793 102.578,82.365 106.994,82.365 113.662,62.793 "/>
  <polygon fill="#B3B3B3" stroke="black" stroke-linecap="round" stroke-linejoin="round" stroke-miterlimit="22.9256" points="118.814,62.18 114.396,62.18 107.52,82.365 111.938,82.365 "/>
  <polygon fill="#B3B3B3" stroke="black" stroke-linecap="round" stroke-linejoin="round" stroke-miterlimit="22.9256" points="123.756,62.18 119.339,62.18 112.463,82.365 116.88,82.365 "/>
  <polygon fill="#B3B3B3" stroke="black" stroke-linecap="round" stroke-linejoin="round" stroke-miterlimit="22.9256" points="128.699,62.18 124.282,62.18 117.406,82.365 121.823,82.365 "/>
  <polygon fill="#B3B3B3" stroke="black" stroke-linecap="round" stroke-linejoin="round" stroke-miterlimit="22.9256" points="133.642,62.18 129.225,62.18 122.349,82.365 126.766,82.365 "/>
  <polygon fill="#B3B3B3" stroke="black" stroke-linecap="round" stroke-linejoin="round" stroke-miterlimit="22.9256" points="138.585,62.18 134.168,62.18 127.292,82.365 131.709,82.365 "/>
  <polygon fill="#B3B3B3" stroke="black" stroke-linecap="round" stroke-linejoin="round" stroke-miterlimit="22.9256" points="143.528,62.18 139.111,62.18 132.235,82.365 136.652,82.365 "/>
  <path fill="#B3B3B3" stroke="black" stroke-linecap="round" stroke-linejoin="round" stroke-miterlimit="22.9256" d="M176.329 65.554l-33.95 0 -4.986 14.635 -0.741 2.176 -4.417 0 0.741 -2.176 -0.526 0 -0.741 2.176 -4.417 0 0.741 -2.176 -0.526 0 -0.741 2.176 -4.417 0 0.741 -2.176 -0.526 0 -0.741 2.176 -4.417 0 0.741 -2.176 -0.525 0 -0.742 2.176 -4.417 0 0.741 -2.176 -0.525 0 -0.741 2.176 -4.418 0 0.742 -2.176 -0.526 0 -0.742 2.176 -4.416 0 0.741 -2.176 -3.245 0 -2.597 7.343 179.629 0 4.058 -2.234 0.84 -4.341c0.224,-1.16 1.152,-2.239 2.748,-2.239l-112.422 0 0 -3.807 1.904 0 2.095 -9.357z"/>
  <path fill="#B3B3B3" stroke="black" stroke-linecap="round" stroke-linejoin="round" stroke-miterlimit="22.9256" d="M318.068 65.554l-108.737 0 1.568 6.855 -1.264 1.413 76.613 0c1.83,-4.078 4.977,-4.829 7.364,-4.829l24.456 0 0 -3.439z"/>
  <path fill="#B3B3B3" stroke="black" stroke-linecap="round" stroke-linejoin="round" stroke-miterlimit="22.9256" d="M172.33 78.718l112.422 0 0.773 -2.847c0.207,-0.762 0.451,-1.442 0.723,-2.049l-76.613 0 -1.51 1.687 -28.669 0 0 -0.598 -7.126 0 0 3.807z"/>
  <polygon fill="#B3B3B3" stroke="black" stroke-linecap="round" stroke-linejoin="round" stroke-miterlimit="22.9256" points="179.456,62.943 208.125,63.65 208.125,75.509 179.456,75.509 "/>
  <path fill="#B3B3B3" stroke="black" stroke-linecap="round" stroke-linejoin="round" stroke-miterlimit="22.9256" d="M175.208 70.559l-31.438 0c-1.197,0 -2.176,0.979 -2.176,2.176 0,1.197 0.979,2.176 2.176,2.176l30.464 0 0.974 -4.352z"/>
  <path fill="#B3B3B3" stroke="black" stroke-linecap="round" stroke-linejoin="round" stroke-miterlimit="22.9256" d="M306.372 55.599l6.636 0.816c1.782,0.219 3.264,1.469 3.264,3.264l0 2.448 -9.9 0 0 -6.528z"/>
  <path fill="#B3B3B3" stroke="black" stroke-linecap="round" stroke-linejoin="round" stroke-miterlimit="22.9256" d="M282.437 83.887l30.626 0c-12.817,0 -23.618,5.385 -26.922,12.73l-3.704 0 0 -12.73z"/>
  <polygon fill="#B3B3B3" stroke="black" stroke-linecap="round" stroke-linejoin="round" stroke-miterlimit="22.9256" points="174.234,74.911 179.456,74.911 179.456,62.18 176.329,65.554 "/>
  <polygon fill="#B3B3B3" stroke="black" stroke-linecap="round" stroke-linejoin="round" stroke-miterlimit="22.9256" points="208.125,75.509 210.899,72.409 208.56,62.18 208.125,63.65 "/>
  <rect fill="#B3B3B3" stroke="black" stroke-linecap="round" stroke-linejoin="round" stroke-miterlimit="22.9256" x="179.456" y="64.631" width="28.669" height="10.879"/>
  <path fill="#B3B3B3" stroke="black" stroke-linecap="round" stroke-linejoin="round" stroke-miterlimit="22.9256" d="M114.307 60.716l16.733 1.443c0.974,0.084 1.838,-0.643 1.922,-1.616l0 0c0.083,-0.973 -0.643,-1.837 -1.617,-1.921l-16.733 -1.443 -0.305 3.537z"/>
  <polygon fill="#B3B3B3" stroke="black" stroke-linecap="round" stroke-linejoin="round" stroke-miterlimit="22.9256" points="105.933,59.994 107.45,60.125 108.035,53.35 106.517,53.219 "/>
  <polygon fill="#B3B3B3" stroke="black" stroke-linecap="round" stroke-linejoin="round" stroke-miterlimit="22.9256" points="107.45,60.125 114.307,60.716 114.612,57.179 112.26,54.382 107.978,54.013 "/>
  <polygon fill="#B3B3B3" stroke="black" stroke-linecap="round" stroke-linejoin="round" stroke-miterlimit="22.9256" points="114.396,62.18 131.771,62.18 121.163,59.391 114.396,59.391 "/>
  <polygon fill="#B3B3B3" stroke="black" stroke-linecap="round" stroke-linejoin="round" stroke-miterlimit="22.9256" points="318.06,62.213 320.446,64.014 320.889,66.619 320.897,81.113 318.068,83.887 "/>
 </g>
 <g id="FireSelector">
  <path fill="#B3B3B3" stroke="black" stroke-linecap="round" stroke-linejoin="round" stroke-miterlimit="22.9256" d="M110.259 86.816l24.45 2.907 -23.821 -0.338 -0.031 0c2.55,0.076 2.495,3.912 -0.056,3.915l0.031 0.001 23.822 0.338 -24.523 2.212c-0.158,0.014 -0.319,0.02 -0.482,0.017 -2.553,-0.036 -4.594,-2.098 -4.559,-4.605 0.036,-2.511 2.135,-4.515 4.688,-4.478 0.163,0.002 0.323,0.013 0.481,0.031z"/>
  <path fill="#B3B3B3" stroke="black" stroke-linecap="round" stroke-linejoin="round" stroke-miterlimit="22.9256" d="M108.657 89.353l2.169 0.031c2.581,0.037 2.525,3.953 -0.056,3.916l-2.169 -0.03c-2.58,-0.037 -2.525,-3.954 0.056,-3.917z"/>
  <path fill="#B3B3B3" stroke="black" stroke-linecap="round" stroke-linejoin="round" stroke-miterlimit="22.9256" d="M134.709 89.723c1.077,0.015 1.945,0.909 1.93,1.986 -0.015,1.077 -0.909,1.945 -1.985,1.93l-23.822 -0.338 -0.031 -0.001c2.535,-0.003 2.589,-3.839 0.056,-3.915l0.031 0 23.821 0.338z"/>
 </g>
</svg>
