<svg xmlns="http://www.w3.org/2000/svg" width="384px" height="192px" version="2.0" shape-rendering="geometricPrecision" text-rendering="geometricPrecision" image-rendering="optimizeQuality" fill-rule="evenodd" clip-rule="evenodd"
viewBox="0 0 384 192">
 <g id="Trigger">
  <path fill="#333333" stroke="black" stroke-linecap="round" stroke-linejoin="round" stroke-miterlimit="22.9256" d="M157.086 82.455c-0.589,4.14 -0.979,9.649 0.23,12.666 0.842,2.099 2.282,3.736 4.176,5.132 1.255,0.924 2.695,1.772 4.321,2.517 0.386,0.177 1.301,0.353 1.862,0.223 0.392,-0.092 0.961,-0.487 0.059,-1.387 -1.043,-1.04 -2.859,-3.944 -3.228,-5.049 -0.685,-2.048 -0.857,-4.52 -1.114,-7.148 -0.632,-6.465 3.771,-13.435 5.783,-15.588 -2.848,0.743 -9.647,-1.908 -11.373,-0.981 -1.01,0.543 -0.007,8.983 -0.716,9.615z"/>
  <circle fill="none" cx="160.255" cy="75.825" r="36.972"/>
 </g>
 <g id="Bullet">
  <path fill="#CC9933" stroke="black" stroke-linecap="round" stroke-linejoin="round" stroke-miterlimit="22.9256" d="M146.79 53.342c1.389,0 2.564,-0.157 3.548,-0.415 1.147,-0.3 2.166,-0.789 3.128,-1.488 1.21,-0.877 1.184,-1.431 1.184,-2.168l0 -4.618c0,-0.737 0.026,-1.29 -1.184,-2.168 -0.962,-0.699 -1.981,-1.188 -3.128,-1.488 -0.984,-0.257 -2.159,-0.415 -3.548,-0.415l-4.715 0.302 0 12.156 4.715 0.302z"/>
 </g>
 <g id="Case">
  <polygon fill="#CC9933" stroke="black" stroke-linecap="round" stroke-linejoin="round" stroke-miterlimit="22.9256" points="114.65,40.432 114.65,53.492 114.15,52.992 114.15,40.932 "/>
  <rect fill="#CC9933" stroke="black" stroke-linecap="round" stroke-linejoin="round" stroke-miterlimit="22.9256" x="115.65" y="41.112" width="0.95" height="11.7"/>
  <rect fill="#CC9933" stroke="black" stroke-linecap="round" stroke-linejoin="round" stroke-miterlimit="22.9256" x="114.65" y="40.432" width="1" height="13.06"/>
  <polygon fill="#CC9933" stroke="black" stroke-linecap="round" stroke-linejoin="round" stroke-miterlimit="22.9256" points="118.09,40.067 146.79,40.212 146.79,53.712 118.09,53.857 "/>
  <polygon fill="#CC9933" stroke="black" stroke-linecap="round" stroke-linejoin="round" stroke-miterlimit="22.9256" points="116.6,41.112 118.09,40.067 118.09,53.857 116.6,52.812 "/>
 </g>
 <g id="Magazine">
  <rect fill="#333333" stroke="black" stroke-linecap="round" stroke-linejoin="round" stroke-miterlimit="22.9256" x="81.098" y="171.413" width="59.555" height="3.654"/>
  <path fill="#333333" stroke="black" stroke-linecap="round" stroke-linejoin="round" stroke-miterlimit="22.9256" d="M86.313 171.454l45.921 0 19.943 -113.107 0.832 -4.717 0.451 -2.558c0.706,-4.002 -1.991,-7.275 -5.992,-7.275l-3.125 0 -8.406 0c-1.153,0 -1.93,-0.944 -1.727,-2.097l0.37 -2.098 -25.018 0 -23.249 131.852z"/>
  <path fill="#333333" stroke="black" stroke-linecap="round" stroke-linejoin="round" stroke-miterlimit="22.9256" d="M144.343 43.797l-8.2 0 -21.432 121.55c-0.398,2.255 1.121,4.1 3.377,4.1l0 0c2.255,0 4.425,-1.845 4.823,-4.1l21.432 -121.55z"/>
  <path fill="#1A1A1A" stroke="black" stroke-linecap="round" stroke-linejoin="round" stroke-miterlimit="22.9256" d="M130.946 44.301l-3.526 19.996c-0.349,1.98 -2.255,3.6 -4.235,3.6l0 0c-1.98,0 -3.314,-1.62 -2.965,-3.6l3.526 -19.996 7.2 0z"/>
  <polygon fill="#1A1A1A" stroke="black" stroke-linecap="round" stroke-linejoin="round" stroke-miterlimit="22.9256" points="124.574,39.602 131.774,39.602 131.401,41.72 124.201,41.72 "/>
  <circle fill="#1A1A1A" stroke="black" stroke-linecap="round" stroke-linejoin="round" stroke-miterlimit="22.9256" cx="109.537" cy="84.947" r="2.5"/>
  <circle fill="#1A1A1A" stroke="black" stroke-linecap="round" stroke-linejoin="round" stroke-miterlimit="22.9256" cx="107.302" cy="97.347" r="2.5"/>
  <circle fill="#1A1A1A" stroke="black" stroke-linecap="round" stroke-linejoin="round" stroke-miterlimit="22.9256" cx="105.067" cy="110.297" r="2.5"/>
  <circle fill="#1A1A1A" stroke="black" stroke-linecap="round" stroke-linejoin="round" stroke-miterlimit="22.9256" cx="102.832" cy="122.972" r="2.5"/>
  <circle fill="#1A1A1A" stroke="black" stroke-linecap="round" stroke-linejoin="round" stroke-miterlimit="22.9256" cx="100.597" cy="135.647" r="2.5"/>
  <circle fill="#B3B3B3" stroke="black" stroke-linecap="round" stroke-linejoin="round" stroke-miterlimit="22.9256" cx="125.289" cy="59.094" r="2.5"/>
 </g>
 <g id="Receiver">
  <path fill="#333333" stroke="black" stroke-linecap="round" stroke-linejoin="round" stroke-miterlimit="22.9256" d="M105.451 69.733l11.719 0 0 8.004 30.299 0 -3.739 19.973 -2.691 0c-3.572,0 -3.572,5.431 0,5.431l1.675 0 -11.537 61.634 -56.167 0c0.667,-14.801 2.827,-26.529 8.759,-40.134l9.456 -23.354 3.366 -1.255 8.86 -30.299z"/>
  <path fill="#B3B3B3" stroke="black" stroke-linecap="round" stroke-linejoin="round" stroke-miterlimit="22.9256" d="M198.323 84.598l-7.411 0c1.233,1.87 1.294,3.754 1.294,4.68l0 10.111c0,2.987 -2.445,5.431 -5.431,5.431l-18.513 0c-3.933,0 -9.261,-2.659 -10.813,-5.64 -1.514,-2.912 -3.676,-2.274 -3.676,-8.256 0,-4.176 1.176,-7.706 5.88,-10.234 3.168,-1.702 9.106,-3.475 14.584,-3.917 -5.377,0.032 -14.251,0.859 -19.631,3.215 -3.445,1.509 -5.136,3.774 -5.182,8.222 -0.05,4.97 1.102,6.613 3.577,9.093 0.896,0.898 1.862,1.407 2.446,2.317 1.817,2.833 0.872,6.786 -3.169,7.156 -3.553,0.325 -5.875,3.126 -7.284,5.567 -0.989,1.711 -1.776,3.766 -2.163,5.699l-6.883 34.417c-0.559,2.792 -1.378,6.24 -0.542,8.959 0.813,2.641 -2.19,3.357 -4.229,3.357l-54.277 0 0.166 7.005 69.384 0 -3.874 -11.258c-0.888,-2.578 -1.791,-3.724 -0.505,-8.524l7.124 -33.79c0.077,-0.647 0.284,-1.192 0.469,-1.802 1.489,-4.913 6.535,-8.735 12.254,-8.735 2.287,0 4.367,0.471 6.783,0.471l25.393 0c1.942,0 3.156,-1.22 2.561,-3.443 -0.613,-2.289 -1.453,-5.558 -1.453,-7.911 0,-4.326 1.133,-8.562 3.121,-12.19z"/>
  <path fill="#E6E6E6" stroke="black" stroke-linecap="round" stroke-linejoin="round" stroke-miterlimit="22.9256" d="M218.853 47.863l-17.396 0 -24.724 0c-3.695,0 -6.718,-3.023 -6.718,-6.718l0 -13.361 33.157 0 4.859 2.323 98.828 0 3.859 -2.215 17.793 0 0 5.81 -2.755 0c0,-2.836 -4.287,-2.836 -4.288,0l-1.858 0c0,-2.836 -4.287,-2.836 -4.287,0l-1.858 0c0,-2.836 -4.287,-2.836 -4.287,0l-1.858 0c-0.001,-2.826 -4.287,-2.826 -4.288,0l-101.187 0 0 3.93c0,6.054 10.954,10.231 17.008,10.231z"/>
  <path fill="#E6E6E6" stroke="black" stroke-linecap="round" stroke-linejoin="round" stroke-miterlimit="22.9256" d="M131.177 164.775l11.537 -61.634 -1.675 0c-1.493,0 -2.715,-1.222 -2.715,-2.716 0,-1.493 1.222,-2.715 2.715,-2.715l2.691 0 3.739 -19.973 -30.299 0 0 -8.004 -11.719 0 -8.86 30.299 -3.366 1.255 0.324 -1.032c0.703,-3.316 1.2,-4.683 0.929,-8.075 0,-8.722 -7.071,-15.793 -15.793,-15.793l-18.079 0c-7.114,0 -5.996,-4.419 -1.42,-6.201 6.364,-2.477 13.285,-2.485 20.005,-2.481l37.979 0.024 191.773 0 -1.491 3.539 -86.729 0c-9.628,0 -18.056,5.404 -22.4,13.33l-7.411 0c-2.975,-4.473 -5.673,-7.825 -11.426,-7.825l-5.249 0c-4.215,0.025 -7.024,0.148 -11.274,0.964 -0.363,0.069 -0.729,0.142 -1.094,0.217 -2.96,0.607 -5.375,1.207 -7.263,2.034 -3.445,1.509 -5.136,3.774 -5.182,8.222 -0.05,4.97 1.102,6.613 3.577,9.093 0.896,0.898 1.862,1.407 2.446,2.317 1.817,2.833 0.872,6.786 -3.169,7.156 -3.553,0.325 -5.875,3.126 -7.284,5.567 -0.989,1.711 -1.776,3.766 -2.163,5.699l-6.883 34.417c-0.559,2.792 -1.378,6.24 -0.542,8.959 0.813,2.641 -2.19,3.357 -4.229,3.357z"/>
  <path fill="#E6E6E6" stroke="black" stroke-linecap="round" stroke-linejoin="round" stroke-miterlimit="22.9256" d="M218.853 55.313l0 -7.45c-6.054,0 -17.008,-4.177 -17.008,-10.231l0 -3.93 101.187 0 0 0 0 7.217c0,2.826 4.288,2.826 4.288,0l0 -7.217 0 0 1.858 0 0 0 0 7.217c0,2.837 4.287,2.837 4.287,0l0 -7.217 0 0 1.858 0 0 0 0 7.217c0,2.837 4.287,2.837 4.287,0l0 -7.217 0 0 1.858 0 0 0 0 7.217c0,2.837 4.288,2.837 4.288,0l0 -7.217 0 0 2.755 0 0 15.413 -2.61 6.198 -107.048 0z"/>
  <polygon fill="#E6E6E6" stroke="black" stroke-linecap="round" stroke-linejoin="round" stroke-miterlimit="22.9256" points="191.545,67.729 191.545,55.313 325.901,55.313 320.674,67.729 "/>
  <path fill="#E6E6E6" stroke="black" stroke-linecap="round" stroke-linejoin="round" stroke-miterlimit="22.9256" d="M310.718 27.892c2.256,-1.451 4.511,-2.975 6.777,-4.397 3.51,-2.202 5.129,0.002 5.129,1.566l0 2.831 -11.906 0z"/>
  <path fill="#333333" stroke="black" stroke-linecap="round" stroke-linejoin="round" stroke-miterlimit="22.9256" d="M143.853 98.801l4.872 1.375c0.82,-1.129 2.286,-1.686 3.708,-1.284 1.823,0.514 2.883,2.41 2.369,4.233 -0.515,1.823 -2.41,2.883 -4.233,2.368 -1.422,-0.401 -2.38,-1.642 -2.489,-3.034l-4.872 -1.376c-1.504,-0.424 -0.859,-2.707 0.645,-2.282z"/>
  <circle fill="#333333" stroke="black" stroke-linecap="round" stroke-linejoin="round" stroke-miterlimit="22.9256" cx="160.255" cy="75.825" r="1.393"/>
  <circle fill="#4D4D4D" stroke="black" stroke-linecap="round" stroke-linejoin="round" stroke-miterlimit="22.9256" cx="86.653" cy="140.638" r="2.465"/>
  <circle fill="#4D4D4D" stroke="black" stroke-linecap="round" stroke-linejoin="round" stroke-miterlimit="22.9256" cx="115.344" cy="121.273" r="8.397"/>
  <path fill="#B3B3B3" stroke="black" stroke-linecap="round" stroke-linejoin="round" stroke-miterlimit="22.9256" d="M325.756 33.702l0 7.217c0,2.837 -4.288,2.837 -4.288,0l0 -7.217c0,-2.836 4.288,-2.836 4.288,0zm-6.146 0l0 7.217c0,2.837 -4.287,2.837 -4.287,0l0 -7.217c0,-2.836 4.287,-2.836 4.287,0zm-6.145 0l0 7.217c0,2.837 -4.287,2.837 -4.287,0l0 -7.217c0,-2.836 4.287,-2.836 4.287,0zm-6.145 0l0 7.217c0,2.826 -4.288,2.826 -4.288,0l0 -7.217c0,-2.826 4.288,-2.826 4.288,0z"/>
  <polygon fill="#333333" stroke="black" stroke-linecap="round" stroke-linejoin="round" stroke-miterlimit="22.9256" points="178.82,72.115 178.82,75.421 196.912,75.421 194.22,68.902 183.497,68.902 "/>
  <circle fill="#333333" stroke="black" stroke-linecap="round" stroke-linejoin="round" stroke-miterlimit="22.9256" cx="193.7" cy="79.908" r="2.834"/>
  <path fill="#333333" stroke="black" stroke-linecap="round" stroke-linejoin="round" stroke-miterlimit="22.9256" d="M198.646 68.902c-0.125,2.319 -1.122,4.221 -2.444,4.801l-1.982 -4.801 4.426 0z"/>
  <path fill="#333333" stroke="black" stroke-linecap="round" stroke-linejoin="round" stroke-miterlimit="22.9256" d="M196.202 73.703c0.925,-0.406 1.69,-1.458 2.11,-2.848 0.315,0.122 0.614,0.257 0.895,0.402 2.352,0.196 4.129,1.093 4.129,2.168 0,0.634 -0.617,1.205 -1.606,1.608 -0.265,1.376 -1.644,2.566 -3.622,3.283l-1.906 -4.613z"/>
  <path fill="#333333" stroke="black" stroke-linecap="round" stroke-linejoin="round" stroke-miterlimit="22.9256" d="M198.108 78.316c-0.556,0.201 -1.159,0.365 -1.798,0.485 -0.431,-1.015 -1.438,-1.727 -2.61,-1.727 -1.166,0 -2.167,0.704 -2.602,1.71 -2.655,-0.518 -4.674,-1.794 -5.228,-3.363l11.042 0 1.196 2.895z"/>
 </g>
 <g id="Hammer">
  <circle fill="none" cx="99.936" cy="58.041" r="41.103"/>
  <path fill="#E6E6E6" stroke="black" stroke-linecap="round" stroke-linejoin="round" stroke-miterlimit="22.9256" d="M78.353 36.271l0.831 0.345c2.557,0.909 6.688,1.445 10.663,1.788 3.066,0.264 8.913,-4.97 10.964,-4.57 2.937,0.573 3.846,2.883 2.545,4.266l-5.275 5.611c-4.123,4.386 -4.981,11.746 -7.016,18.846l-9.319 -4.475c-0.361,-8.046 -1.02,-10.231 -6.647,-16.981 -0.403,-0.484 -1.009,-1.12 -1.009,-2.26 0,-1.991 1.629,-3.665 4.263,-2.57z"/>
 </g>
 <g id="Slide">
  <path fill="#E6E6E6" stroke="black" stroke-linecap="round" stroke-linejoin="round" stroke-miterlimit="22.9256" d="M172.687 46.499c-1.62,-1.229 -2.672,-3.174 -2.672,-5.354l0 -15.149 -38.302 0 -5.717 3.431 -27.726 0 -8.432 9.003 -4.288 5.288 -6.359 24.011 218.021 0 0 -12.416 -118.531 0c-3.077,0 -5.614,-3.841 -5.994,-8.814zm-48.228 -12.001c2.003,0 3.626,1.624 3.626,3.627 0,1.477 -0.883,2.748 -2.15,3.313l-17.033 7.596c-1.727,0.997 -3.834,1.336 -5.912,0.779 -4.155,-1.113 -6.621,-5.385 -5.507,-9.54 0.945,-3.53 4.17,-5.84 7.666,-5.773l19.31 -0.002z"/>
  <path fill="#E6E6E6" stroke="black" stroke-linecap="round" stroke-linejoin="round" stroke-miterlimit="22.9256" d="M102.566 20.941l6.208 0c0.894,3.54 4.623,6.337 9.37,7.044l0 1.442 -15.578 0 0 -8.486z"/>
  <path fill="#E6E6E6" stroke="black" stroke-linecap="round" stroke-linejoin="round" stroke-miterlimit="22.9256" d="M124.459 34.498c2.003,0 3.626,1.624 3.626,3.627 0,1.433 -0.689,2.661 -2.151,3.313l-17.032 7.596c-1.489,0.664 -3.834,1.336 -5.912,0.779 -4.155,-1.113 -6.621,-5.385 -5.507,-9.54 0.945,-3.53 4.17,-5.84 7.666,-5.773l19.31 -0.002z"/>
  <circle fill="#E6E6E6" stroke="black" stroke-linecap="round" stroke-linejoin="round" stroke-miterlimit="22.9256" cx="105.006" cy="42.289" r="4.031"/>
  <path fill="#E6E6E6" stroke="black" stroke-linecap="round" stroke-linejoin="round" stroke-miterlimit="22.9256" d="M116.992 41.045c-0.745,0 -1.348,-0.603 -1.348,-1.348 0,-0.549 0.328,-1.022 0.799,-1.232l6.333 -2.824c0.642,-0.371 1.426,-0.497 2.198,-0.29 1.545,0.414 2.462,2.002 2.048,3.547 -0.352,1.312 -1.55,2.171 -2.851,2.147l-7.179 0z"/>
  <path fill="#E6E6E6" stroke="black" stroke-linecap="round" stroke-linejoin="round" stroke-miterlimit="22.9256" d="M122.119 54.017l-17.468 -3.945c0.475,0.019 1.151,-0.089 1.85,-0.255 0.904,-0.19 1.737,-0.487 2.401,-0.783 5.677,-2.532 11.355,-5.064 17.033,-7.596 1.604,-0.715 2.265,-2.121 2.133,-3.671 0.002,0.008 2.849,18.237 -5.949,16.25z"/>
  <path fill="#E6E6E6" stroke="black" stroke-linecap="round" stroke-linejoin="round" stroke-miterlimit="22.9256" d="M297.212 47.863l0 7.45 -118.531 0c-3.077,0 -5.618,-3.844 -5.997,-8.817 1.128,0.857 2.531,1.367 4.049,1.367l120.479 0z"/>
  <circle fill="#E6E6E6" stroke="black" stroke-linecap="round" stroke-linejoin="round" stroke-miterlimit="22.9256" cx="117.809" cy="50.171" r="1.251"/>
 <polygon fill="#E6E6E6" stroke="black" stroke-linecap="round" stroke-linejoin="round" stroke-miterlimit="22.9256" points="153.004,67.729 158.284,67.729 165.694,40.074 160.414,40.074 "/>
 <polygon fill="#E6E6E6" stroke="black" stroke-linecap="round" stroke-linejoin="round" stroke-miterlimit="22.9256" points="147.724,67.729 153.004,67.729 160.414,40.074 155.134,40.074 "/>
 <polygon fill="#E6E6E6" stroke="black" stroke-linecap="round" stroke-linejoin="round" stroke-miterlimit="22.9256" points="142.444,67.729 147.724,67.729 155.134,40.074 149.854,40.074 "/>
 <polygon fill="#E6E6E6" stroke="black" stroke-linecap="round" stroke-linejoin="round" stroke-miterlimit="22.9256" points="137.164,67.729 142.444,67.729 149.854,40.074 144.574,40.074 "/>
 <polygon fill="#E6E6E6" stroke="black" stroke-linecap="round" stroke-linejoin="round" stroke-miterlimit="22.9256" points="131.884,67.729 137.164,67.729 144.574,40.074 139.294,40.074 "/>
 <polygon fill="#E6E6E6" stroke="black" stroke-linecap="round" stroke-linejoin="round" stroke-miterlimit="22.9256" points="126.604,67.729 131.884,67.729 139.294,40.074 134.013,40.074 "/>
 <path fill="#E6E6E6" stroke="black" stroke-linecap="round" stroke-linejoin="round" stroke-miterlimit="22.9256" d="M121.324 67.729l5.28 0 7.409 -27.655 -5.28 0 -0.311 1.162c0.268,4.225 0.113,10.993 -3.372,12.586l-3.726 13.907z"/>
 <path fill="#E6E6E6" stroke="black" stroke-linecap="round" stroke-linejoin="round" stroke-miterlimit="22.9256" d="M116.043 67.729l5.281 0 3.726 -13.907c-0.793,0.363 -1.758,0.46 -2.931,0.195l-2.265 -0.511 -3.811 14.223z"/>
 <polygon fill="#E6E6E6" stroke="black" stroke-linecap="round" stroke-linejoin="round" stroke-miterlimit="22.9256" points="110.763,67.729 116.043,67.729 119.854,53.506 114.876,52.381 "/>
 <polygon fill="#E6E6E6" stroke="black" stroke-linecap="round" stroke-linejoin="round" stroke-miterlimit="22.9256" points="105.483,67.729 110.763,67.729 114.876,52.381 109.897,51.256 "/>
 <polygon fill="#E6E6E6" stroke="black" stroke-linecap="round" stroke-linejoin="round" stroke-miterlimit="22.9256" points="100.203,67.729 105.483,67.729 109.897,51.256 104.918,50.132 "/>
 <path fill="#E6E6E6" stroke="black" stroke-linecap="round" stroke-linejoin="round" stroke-miterlimit="22.9256" d="M94.923 67.729l5.28 0 4.747 -17.715c-0.657,0.025 -1.321,-0.03 -1.96,-0.201 -1.085,-0.291 -2.054,-0.797 -2.875,-1.46l-5.192 19.376z"/>
 <path fill="#E6E6E6" stroke="black" stroke-linecap="round" stroke-linejoin="round" stroke-miterlimit="22.9256" d="M89.643 67.729l5.28 0 5.192 -19.376c-2.323,-1.877 -3.455,-5.01 -2.632,-8.08 0.017,-0.067 0.037,-0.133 0.056,-0.199l-0.486 0 -7.41 27.655z"/>
 <path fill="#E6E6E6" stroke="black" stroke-linecap="round" stroke-linejoin="round" stroke-miterlimit="22.9256" d="M128.422 41.236l0.311 -1.162 -0.399 0c0.031,0.359 0.062,0.747 0.088,1.162z"/>
  <circle fill="#E6E6E6" stroke="black" stroke-linecap="round" stroke-linejoin="round" stroke-miterlimit="22.9256" cx="125.925" cy="50.086" r="0.933"/>
 </g>
</svg>
